<?xml version="1.0" encoding="UTF-8" standalone="no"?>
<!-- Created with Inkscape (http://www.inkscape.org/) -->
<svg
   xmlns:svg="http://www.w3.org/2000/svg"
   xmlns="http://www.w3.org/2000/svg"
   version="1.0"
   width="76.750198mm"
   height="37.306301mm"
   viewBox="0 0 87.9978 42.7735"
   id="svg2"
   xml:space="preserve">
 <defs
   id="defs4">
  <style
   type="text/css"
   id="style6" />
 </defs>
 <g
   transform="matrix(0.9745131,0,0,0.9168726,1.121723,1.7778252)"
   id="图层_x0020_1">
  
  <g
   id="图层_1_1_">
   <path
   d="M 48.4065,1.35763 C 48.4065,1.35763 41.82336,1.965301 41.01275,11.79003 C 36.25251,11.79003 80.41225,11.79003 80.41225,11.79003 C 80.41225,11.79003 87.40069,9.86555 87.70464,1.25623 C 92.16162,1.25623 48.40644,1.357585 48.40644,1.357585 L 48.4065,1.35763 z "
   style="fill:#57a900"
   id="_157630288" />
  </g>
  <g
   id="图层_2">
   <path
   d="M 46.8877,17.158 C 46.8877,17.158 42.2287,17.562961 41.01313,26.47623 C 33.72039,26.47623 62.48513,26.47623 62.48513,26.47623 C 62.48513,26.47623 67.95497,25.36224 69.5755,16.85428 C 75.95604,16.85428 47.0903,16.85428 47.0903,16.85428 M 46.887705,17.158001 L 46.887705,17.158001 L 46.887705,17.158001 z "
   style="fill:#57a900"
   id="_157641304" />
   <path
   d="M 48.4612,31.1701 C 48.4612,31.1701 43.07655,31.549264 40.49808,42.3944 L 48.15783,42.3944 C 48.15783,42.3944 57.41025,42.318613 57.25856,31.3218 M 48.46121,31.170112 L 48.46121,31.170112 L 48.46121,31.170112 z "
   style="fill:#57a900"
   id="_157641568" />
  </g>
  <g
   id="图层_3">
   <polygon
   points="1.82015,0 39.1329,0 19.415,32.3077 36.2513,32.3077 36.2513,42.7735 0,42.7735 20.6284,8.64578 1.82015,8.64578 1.82015,0 "
   style="fill:#57a900"
   id="_157642240" />
  </g>
 </g>
</svg>